<?xml version="1.0" encoding="UTF-8" standalone="no"?>
<!-- Created with Inkscape (http://www.inkscape.org/) -->

<svg
        width="285.75mm"
        height="285.75mm"
        viewBox="0 0 285.75 285.75"
        version="1.1"
        id="svg5"
        xml:space="preserve"
        xmlns="http://www.w3.org/2000/svg"
><defs
     id="defs2" /><g
     id="layer1"
     transform="translate(32.454559,-4.0043869)"><rect
       style="fill:#a952f7;stroke-width:0.264583;fill-opacity:1"
       id="rect529"
       width="285.75"
       height="285.75"
       x="-32.454559"
       y="4.0043869" /><path
       style="fill:#ffffff;stroke-width:0.264583;fill-opacity:1"
       d="M 29.718137,66.334885 H 105.49652"
       id="path253" /><path
       style="fill:#ffffff;stroke-width:0.264583;fill-opacity:1"
       d="M 68.791119,136.79674 95.7203,99.0734 A 2.0430974,2.0430974 62.760763 0 0 94.057429,95.843245 H 89.07424 A 2.069105,2.069105 62.464749 0 1 87.377869,92.589437 L 103.44102,69.588693 a 2.069105,2.069105 62.464749 0 0 -1.69637,-3.253808 H 33.686887 a 3.96875,3.96875 135 0 0 -3.96875,3.96875 v 65.754505 a 3.96875,3.96875 45 0 0 3.96875,3.96875 l 28.829603,0 a 7.7093615,7.7093615 152.76076 0 0 6.274629,-3.23015 z"
       id="path255" /><path
       style="fill:#ffffff;stroke-width:0.264583;fill-opacity:1"
       d="m 121.10738,66.334885 h 65.4389 a 3.96875,3.96875 45 0 1 3.96875,3.96875 v 31.985575 c 0,2.19188 -0.0732,5.74939 -0.4084,7.91431 -1.3683,8.83856 -7.28377,29.60872 -32.70957,31.56799 -2.18473,0.16835 -5.74486,0.16853 -7.92969,-2.8e-4 -25.37206,-1.96034 -30.83176,-22.71749 -32.00661,-31.56 -0.28851,-2.17148 -0.32213,-5.73014 -0.32213,-7.92202 l 0,-31.985575 a 3.96875,3.96875 135 0 1 3.96875,-3.96875 z"
       id="path385" /><path
       style="fill:#ffffff;stroke-width:0.264583;fill-opacity:1"
       d="M 33.686887,227.13178 H 98.96799 a 3.96875,3.96875 135 0 0 3.96875,-3.96875 l 0,-28.9874 c 0,-2.19188 -0.0166,-5.75 -0.26324,-7.92697 -1.04911,-9.26097 -6.270436,-31.72393 -32.224442,-33.90127 -2.183499,-0.18318 -5.744137,-0.19734 -7.929031,-0.03 -25.999254,1.99085 -31.391122,24.62938 -32.509317,33.93356 -0.261412,2.17514 -0.292573,5.73284 -0.292573,7.92472 l 0,28.9874 a 3.96875,3.96875 45 0 0 3.96875,3.96875 z"
       id="path389" /><path
       id="path393"
       style="fill:#ffffff;stroke-width:0.264583;fill-opacity:1"
       d="m 117.13838,157.40846 v 65.75464 a 3.96875,3.96875 45 0 0 3.96875,3.96875 h 66.85948 a 2.0941184,2.0941184 117.81845 0 0 1.72865,-3.27611 l -20.76787,-30.37266 a 5.7918243,5.7918243 90.057144 0 1 0.007,-6.54775 l 20.75481,-30.22398 a 2.0890608,2.0890608 62.238689 0 0 -1.72212,-3.27164 h -66.85948 a 3.96875,3.96875 135 0 0 -3.96875,3.96875 z" /></g></svg>
