<svg overflow="visible" version="1.1" id="svg3" sodipodi:docname="351-dd1e4bc64c2883f648e84d294be683ad.svg"
     inkscape:version="1.3 (0e150ed6c4, 2023-07-21)" xmlns:inkscape="http://www.inkscape.org/namespaces/inkscape"
     xmlns:sodipodi="http://sodipodi.sourceforge.net/DTD/sodipodi-0.dtd" xmlns="http://www.w3.org/2000/svg"
     viewBox="0 -0.03 288.93 104.28">
  <defs id="defs3"/>
  <sodipodi:namedview id="namedview3" pagecolor="#ffffff" bordercolor="#000000" borderopacity="0.25" inkscape:showpageshadow="2" inkscape:pageopacity="0.0" inkscape:pagecheckerboard="0" inkscape:deskcolor="#d1d1d1" inkscape:zoom="1.200682" inkscape:cx="117.43326" inkscape:cy="52.053751" inkscape:window-width="1920" inkscape:window-height="1001" inkscape:window-x="-9" inkscape:window-y="-9" inkscape:window-maximized="1" inkscape:current-layer="svg3"/>
  <path fill="#fa7d19" d="M161.937 37.151h17.503v-8.244h-21.077c-11.352 0-15.999 6.303-15.999 16.191v.966c-1.898-11.641-8.861-17.158-21.602-17.158H99.394A52.44 52.44 0 0 0 52.435 0C23.5 0 0 23.332 0 52.116c0 28.81 23.5 52.134 52.435 52.134 20.442 0 38.108-11.62 46.789-28.547h21.78c5.213 0 9.9-.308 14.691-4.1 3.444-2.741 5.595-6.553 6.618-11.592v15.635h9.986l.009-18.393h23.588v-8.179h-23.597l.124-3.309c0-5.366 1.626-8.614 9.514-8.614m-41.375 30.312h-11.021V37.151h11.021c8.66 0 11.773 3.69 11.773 15.149 0 11.469-3.113 15.163-11.773 15.163" id="path1" style="--darkreader-inline-fill: #bc5604;" data-darkreader-inline-fill=""/>
  <path fill="#fff" d="M75.666 48.281h6.505c5.167 0 8.24-1.028 8.24-5.38 0-4.491-3.073-5.75-8.375-5.75H59.955v-8.242h25.704c13.025 0 14.875 9.06 14.875 14.108 0 5.397-2.203 13.938-14.904 13.938h-6.307c-7.873 0-9.579 2.833-9.579 8.178v2.507H99.23v8.006H59.667V64.031c0-9.873 4.665-15.75 15.999-15.75" id="path2" style="--darkreader-inline-fill: #181a1b;" data-darkreader-inline-fill=""/>
  <path d="m 215.21,47.343 h -7.269 V 63.68 c 0,2.838 1.661,3.461 4.223,3.461 l 3.046,-0.138 v 8.653 l -6.438,0.346 c -10.037,0 -12.599,-2.907 -12.599,-12.667 V 47.343 h -5.953 v -7.614 h 5.953 V 28.86 h 11.768 v 10.868 h 7.269 z M 232.239,35.229 H 220.471 V 26.23 h 11.768 z m -11.768,4.5 h 11.768 V 75.656 H 220.471 Z M 261.52,75.655 H 247.952 L 235.976,39.728 h 12.252 l 6.576,23.744 h 0.139 l 6.645,-23.744 h 11.976 z M 288.931,35.229 H 277.163 V 26.23 h 11.768 z m -11.767,4.5 h 11.768 v 35.927 h -11.768 z" fill="#7b7e7d" id="path3" sodipodi:nodetypes="ccsccccscccccccccccccccccccccccccccccccccccccc" style="--darkreader-inline-fill: #5e6669;" data-darkreader-inline-fill=""/>
</svg>